<svg width="140" height="187" viewBox="0 0 140 187" fill="none" xmlns="http://www.w3.org/2000/svg">
<path d="M118.247 37.9278C117.31 32.8832 115.811 28.2123 113.75 24.1019C106.068 8.40766 90.8914 0 71.2182 0H25.6887V22.2335H41.802V13.6391H68.9698C80.399 13.6391 89.0178 17.5626 94.6387 24.1019C98.0112 27.8386 100.26 32.5095 101.759 37.9278C102.695 41.8514 103.07 45.9618 103.07 50.4458C103.07 77.3503 90.1419 90.242 66.5341 90.242H41.802V39.7962H25.6887V186.837H41.802V104.255H68.2203C70.6561 104.255 73.0918 104.255 75.3402 104.068C87.8936 102.76 98.0112 98.0892 105.131 90.9894C114.687 81.4607 119.371 67.448 119.371 50.4458C119.371 46.1486 118.996 41.8514 118.247 37.9278ZM15.3837 165.911V104.068H24.0024V90.9894H15.3837V37.9278H99.8849C98.5733 33.0701 96.3249 28.586 93.3271 25.2229L92.2029 24.1019H0.394531V165.911H15.3837ZM115.811 24.1019C117.684 28.2123 119.183 32.8833 120.12 37.9278H139.606V24.1019H115.811ZM107.567 90.9894C103.07 95.8471 97.6365 99.5839 91.0787 102.013C89.2051 102.76 87.3315 103.507 85.2705 104.068H125.366V90.9894H107.567Z" fill="url(#paint0_linear_137_13)"/>
<defs>
<linearGradient id="paint0_linear_137_13" x1="-57.1669" y1="178.967" x2="197.167" y2="178.967" gradientUnits="userSpaceOnUse">
<stop stop-color="#4568DC"/>
<stop offset="1" stop-color="#B06AB3"/>
</linearGradient>
</defs>
</svg>
