<svg width="142" height="200" viewBox="0 0 142 200" fill="none" xmlns="http://www.w3.org/2000/svg">
    <path
        d="M0.324219 200H5.13403V192.927H15.8854C19.2806 192.927 22.6757 192.927 22.6757 189.107V185.146C22.6757 181.327 19.2805 181.327 15.8854 181.327H0.324219V200ZM5.13403 189.815V184.439H16.1683C17.0171 184.439 17.8659 184.439 17.8659 185.429V188.824C17.8659 189.815 17.0171 189.815 16.1683 189.815H5.13403Z"
        fill="url(#paint0_linear_127_114)" />
    <path
        d="M39.0547 200H43.5816V189.956C43.5816 189.107 44.2889 189.107 44.9962 189.107H49.2402V186.419H44.7133C41.884 186.419 39.0547 186.419 39.0547 189.673V200Z"
        fill="url(#paint1_linear_127_114)" />
    <path d="M62.9141 200H67.4409V186.419H62.9141V200ZM62.9141 184.014H67.4409V181.327H62.9141V184.014Z"
        fill="url(#paint2_linear_127_114)" />
    <path
        d="M82.9043 200H87.4312V189.107H91.1093C91.8166 189.107 92.5239 189.107 92.5239 189.956V200H97.0508V189.107H100.729C101.436 189.107 102.144 189.107 102.144 189.956V200H106.67V189.673C106.67 186.419 103.841 186.419 101.012 186.419H82.9043L82.9043 200Z"
        fill="url(#paint3_linear_127_114)" />
    <path
        d="M123.846 196.746C123.846 200 126.675 200 129.504 200H140.822V197.312H129.787C129.08 197.312 128.373 197.312 128.373 196.463V194.2H141.387V189.673C141.387 186.419 138.558 186.419 135.729 186.419H129.504C126.675 186.419 123.846 186.419 123.846 189.673V196.746ZM128.373 191.512V189.956C128.373 189.107 129.08 189.107 129.787 189.107H135.446C136.153 189.107 136.86 189.107 136.86 189.956V191.512H128.373Z"
        fill="url(#paint4_linear_127_114)" />
    <path d="M0 126.997H27.685V130.347H3.28681V148.487H24.5878V151.837H3.28681V173.265H0V126.997Z"
        fill="url(#paint5_linear_127_114)" />
    <path d="M34.6387 126.997H37.9255V173.265H34.6387V126.997Z" fill="url(#paint6_linear_127_114)" />
    <path
        d="M61.5639 126.997C63.2494 126.997 64.8507 127.323 66.3677 127.976C67.8847 128.63 69.2015 129.515 70.3182 130.631C71.4349 131.748 72.3198 133.065 72.9729 134.582C73.6261 136.099 73.9526 137.721 73.9526 139.449C73.9526 141.64 73.4364 143.652 72.4041 145.485C71.3717 147.318 69.9706 148.782 68.2007 149.878C70.2234 150.889 71.8563 152.375 73.0993 154.334C74.3424 156.294 74.964 158.474 74.964 160.876C74.964 162.604 74.6374 164.216 73.9843 165.712C73.3311 167.207 72.4462 168.514 71.3295 169.63C70.2129 170.747 68.896 171.632 67.379 172.285C65.862 172.938 64.2608 173.265 62.5753 173.265H46.2044V126.997H61.5639ZM62.5752 151.774C62.4067 151.774 62.2381 151.785 62.0696 151.806C61.901 151.827 61.7325 151.837 61.5639 151.837H49.4912V169.978H62.5752C63.8394 169.978 65.0193 169.746 66.1149 169.283C67.2105 168.819 68.1691 168.177 68.9908 167.355C69.8125 166.533 70.4657 165.564 70.9503 164.447C71.4349 163.331 71.6772 162.14 71.6772 160.876C71.6772 159.612 71.4349 158.432 70.9503 157.336C70.4657 156.241 69.8125 155.282 68.9908 154.46C68.1691 153.639 67.2105 152.986 66.1149 152.501C65.0193 152.016 63.8394 151.774 62.5752 151.774ZM61.5639 148.487C62.8281 148.487 64.008 148.256 65.1036 147.792C66.1992 147.329 67.1578 146.686 67.9795 145.864C68.8012 145.043 69.4438 144.084 69.9074 142.988C70.3709 141.893 70.6027 140.713 70.6027 139.449C70.6027 138.184 70.3709 137.005 69.9074 135.909C69.4438 134.813 68.8012 133.855 67.9795 133.033C67.1578 132.211 66.1992 131.558 65.1036 131.074C64.008 130.589 62.8281 130.347 61.5639 130.347H49.4912V148.487H61.5639Z"
        fill="url(#paint7_linear_127_114)" />
    <path
        d="M80.9066 126.997H108.655V130.347H84.1934V148.487H105.558V151.837H84.1934V169.978H108.655V173.265H80.9066V126.997Z"
        fill="url(#paint8_linear_127_114)" />
    <path
        d="M114.027 126.997H129.323C131.051 126.997 132.662 127.323 134.158 127.976C135.654 128.63 136.961 129.515 138.077 130.631C139.194 131.748 140.079 133.065 140.732 134.582C141.385 136.099 141.712 137.721 141.712 139.449C141.712 140.966 141.459 142.409 140.953 143.778C140.448 145.148 139.731 146.37 138.804 147.444C137.877 148.519 136.792 149.414 135.549 150.131C134.306 150.847 132.968 151.332 131.535 151.585H131.725L141.016 173.265H137.414L128.185 151.837H117.314V173.265H114.027V126.997ZM117.314 148.487H129.323C130.587 148.487 131.767 148.256 132.863 147.792C133.958 147.329 134.917 146.686 135.739 145.864C136.56 145.043 137.213 144.084 137.698 142.988C138.183 141.893 138.425 140.713 138.425 139.449C138.425 138.184 138.183 137.005 137.698 135.909C137.213 134.813 136.56 133.855 135.739 133.033C134.917 132.211 133.958 131.558 132.863 131.074C131.767 130.589 130.587 130.347 129.323 130.347H117.314V148.487Z"
        fill="url(#paint9_linear_127_114)" />
    <path
        d="M97.7379 21.1926C97.2159 18.3739 96.3808 15.7639 95.2324 13.4672C90.9521 4.69787 82.496 0 71.5343 0H46.1659V12.4232H55.144V7.62097H70.2815C76.6498 7.62097 81.452 9.8133 84.5839 13.4672C86.4631 15.5551 87.7158 18.1651 88.551 21.1926C89.073 23.3849 89.2818 25.6816 89.2818 28.1872C89.2818 43.2203 82.0784 50.4237 68.9244 50.4237H55.144V22.2365H46.1659V104.397H55.144V58.2535H69.864C71.2211 58.2535 72.5783 58.2535 73.831 58.1491C80.8256 57.4183 86.4631 54.8084 90.4302 50.8413C95.7544 45.5171 98.3643 37.6873 98.3643 28.1872C98.3643 25.786 98.1555 23.3849 97.7379 21.1926ZM40.424 92.7045V58.1491H45.2263V50.8413H40.424V21.1926H87.507C86.7763 18.4783 85.5235 15.9727 83.8531 14.0936L83.2268 13.4672H32.0723V92.7045H40.424ZM96.3808 13.4672C97.4247 15.7639 98.2599 18.3739 98.7819 21.1926H109.639V13.4672H96.3808ZM91.7873 50.8413C89.2818 53.5556 86.2543 55.6436 82.6004 57.0007C81.5564 57.4183 80.5124 57.8359 79.3641 58.1491H101.705V50.8413H91.7873Z"
        fill="url(#paint10_linear_127_114)" />
    <defs>
        <linearGradient id="paint0_linear_127_114" x1="0.000393767" y1="100" x2="141.712" y2="100"
            gradientUnits="userSpaceOnUse">
            <stop stop-color="#4568DC" />
            <stop offset="1" stop-color="#B06AB3" />
        </linearGradient>
        <linearGradient id="paint1_linear_127_114" x1="0.000338866" y1="100" x2="141.712" y2="100"
            gradientUnits="userSpaceOnUse">
            <stop stop-color="#4568DC" />
            <stop offset="1" stop-color="#B06AB3" />
        </linearGradient>
        <linearGradient id="paint2_linear_127_114" x1="0.000205041" y1="100" x2="141.712" y2="100"
            gradientUnits="userSpaceOnUse">
            <stop stop-color="#4568DC" />
            <stop offset="1" stop-color="#B06AB3" />
        </linearGradient>
        <linearGradient id="paint3_linear_127_114" x1="0.000761164" y1="100" x2="141.713" y2="100"
            gradientUnits="userSpaceOnUse">
            <stop stop-color="#4568DC" />
            <stop offset="1" stop-color="#B06AB3" />
        </linearGradient>
        <linearGradient id="paint4_linear_127_114" x1="-0.000693282" y1="100" x2="141.711" y2="100"
            gradientUnits="userSpaceOnUse">
            <stop stop-color="#4568DC" />
            <stop offset="1" stop-color="#B06AB3" />
        </linearGradient>
        <linearGradient id="paint5_linear_127_114" x1="0" y1="100" x2="725.383" y2="100" gradientUnits="userSpaceOnUse">
            <stop stop-color="#4568DC" />
            <stop offset="1" stop-color="#B06AB3" />
        </linearGradient>
        <linearGradient id="paint6_linear_127_114" x1="-1493.42" y1="100" x2="4616.53" y2="100"
            gradientUnits="userSpaceOnUse">
            <stop stop-color="#4568DC" />
            <stop offset="1" stop-color="#B06AB3" />
        </linearGradient>
        <linearGradient id="paint7_linear_127_114" x1="-227.673" y1="100" x2="470.607" y2="100"
            gradientUnits="userSpaceOnUse">
            <stop stop-color="#4568DC" />
            <stop offset="1" stop-color="#B06AB3" />
        </linearGradient>
        <linearGradient id="paint8_linear_127_114" x1="-413.191" y1="100" x2="310.539" y2="100"
            gradientUnits="userSpaceOnUse">
            <stop stop-color="#4568DC" />
            <stop offset="1" stop-color="#B06AB3" />
        </linearGradient>
        <linearGradient id="paint9_linear_127_114" x1="-0.000271373" y1="100" x2="141.712" y2="100"
            gradientUnits="userSpaceOnUse">
            <stop stop-color="#4568DC" />
            <stop offset="1" stop-color="#B06AB3" />
        </linearGradient>
        <linearGradient id="paint10_linear_127_114" x1="-0.000229299" y1="100" x2="141.712" y2="100"
            gradientUnits="userSpaceOnUse">
            <stop stop-color="#4568DC" />
            <stop offset="1" stop-color="#B06AB3" />
        </linearGradient>
    </defs>
</svg>