<svg width="679" height="521" viewBox="0 0 679 521" fill="none" xmlns="http://www.w3.org/2000/svg">
<g clip-path="url(#clip0_711_2)">
<mask id="mask0_711_2" style="mask-type:luminance" maskUnits="userSpaceOnUse" x="0" y="0" width="678" height="521">
<path d="M677.738 0.5H0.5V520.4H677.738V0.5Z" fill="white"/>
</mask>
<g mask="url(#mask0_711_2)">
<path opacity="0.24" d="M501.026 517.017C534.961 514.601 569.545 510.569 600.076 495.608C630.607 480.646 656.707 452.69 660.959 419.015C665.211 385.34 647.704 352.084 650.239 318.209C652.485 288.336 670.041 261.727 675.78 232.324C682.657 197.132 671.089 158.865 645.838 133.374C626.365 113.672 600.325 102.055 574.894 90.876L428.416 26.43C407.227 17.1079 385.798 7.71595 363.042 3.4741C335.884 -1.64605 307.958 0.849151 280.441 3.34435C246.676 6.3386 211.513 9.8718 182.758 27.8173C152.187 46.8607 133.044 79.6975 105.657 103.152C75.5648 128.903 34.9529 143.964 14.2927 177.759C-8.66315 215.267 0.549131 263.893 16.3587 304.904C32.1683 345.916 54.2059 386.128 55.2838 430.074C56.2021 467.622 52.06 497.554 93.7898 502.055C137.126 506.736 181.291 509.291 224.838 512.685C316.671 519.791 409.023 523.564 501.026 517.017Z" fill="#4568DC"/>
<path opacity="0.24" d="M83.68 459.617C87.1134 471.195 102.124 473.7 114.191 474.089L472.692 485.417C498.033 486.216 523.484 487.014 548.675 484.09C575.449 480.961 601.569 473.663 626.087 462.462C630.019 460.655 634.331 458.27 635.399 454.078C637.135 447.321 629.48 442.101 622.853 439.925C602.422 433.278 580.444 433.866 558.976 434.445C422.129 438.178 282.936 444.336 146.199 437.04C130.3 436.192 73.9887 426.98 83.68 459.617Z" fill="#4568DC"/>
<path d="M538.546 145.072V146.449H118.424V145.072C118.423 141.969 119.033 138.897 120.219 136.029C121.407 133.163 123.147 130.558 125.341 128.364C127.534 126.17 130.139 124.43 133.007 123.243C135.873 122.056 138.946 121.446 142.048 121.447H514.921C518.024 121.446 521.097 122.056 523.964 123.243C526.83 124.43 529.435 126.17 531.63 128.364C533.824 130.558 535.564 133.163 536.75 136.029C537.937 138.897 538.548 141.969 538.546 145.072Z" fill="#4568DC"/>
<path d="M538.546 145.072V146.449H118.424V145.072C118.423 141.969 119.033 138.897 120.219 136.029C121.407 133.163 123.147 130.558 125.341 128.364C127.534 126.17 130.139 124.43 133.007 123.243C135.873 122.056 138.946 121.446 142.048 121.447H514.921C518.024 121.446 521.097 122.056 523.964 123.243C526.83 124.43 529.435 126.17 531.63 128.364C533.824 130.558 535.564 133.163 536.75 136.029C537.937 138.897 538.548 141.969 538.546 145.072Z" fill="url(#paint0_linear_711_2)"/>
<path d="M538.546 146.479H118.424V450.444H538.546V146.479Z" fill="white"/>
<path opacity="0.24" d="M524.472 188.349C523.344 192.62 522.316 197.271 522.835 201.843C523.245 205.366 524.522 208.43 525.351 211.754C527.077 218.74 526.718 226.555 526.428 234.071C525.22 265.183 525.6 296.337 527.566 327.411C527.876 330.786 527.926 334.179 527.716 337.562C527.337 340.727 526.754 343.864 525.969 346.954C524.413 354.058 523.349 361.261 522.785 368.512C522.256 375.279 522.177 382.485 524.013 388.584C526.428 396.568 531.609 401.229 536.679 404.503C537.916 400.211 538.146 395.351 538.346 390.62C541.27 319.956 540.771 248.892 536.848 178.388C536.519 172.399 541.32 154.005 536.569 162.189C533.215 167.868 526.299 181.242 524.472 188.349Z" fill="#4568DC"/>
<path d="M545.363 427.698C544.467 428.822 543.851 430.142 543.566 431.551C542.419 436.135 542.677 440.958 544.305 445.394C544.814 446.781 546.081 448.388 547.419 447.759C547.764 447.559 548.097 447.339 548.417 447.101C548.907 446.912 549.43 446.824 549.955 446.841C550.479 446.858 550.995 446.98 551.471 447.201C561.601 450.325 572.58 451.492 582.831 448.758C584.178 448.398 585.685 447.759 586.084 446.462C586.533 444.945 585.276 443.468 584.018 442.54C578.03 437.998 570.045 437.1 563.059 434.445C559.567 433.127 556.263 431.358 553.227 429.185C550.603 427.359 548.247 424.414 545.363 427.698Z" fill="#4568DC"/>
<path d="M550.862 432.709C552.003 435.223 553.882 437.329 556.252 438.747C560.067 441.48 564.676 442.883 569.367 442.739C570.749 442.715 572.096 442.296 573.249 441.532C573.818 441.143 574.258 440.593 574.513 439.954C574.767 439.313 574.824 438.611 574.676 437.939C574.462 437.303 574.122 436.715 573.678 436.212C570.365 432.22 566.083 428.646 564.696 423.626C564.376 422.478 564.157 421.171 563.198 420.462C562.596 420.086 561.911 419.862 561.202 419.813C558.288 419.364 553.467 418.735 551.75 421.71C550.065 425.129 549.746 429.063 550.862 432.709Z" fill="url(#paint1_linear_711_2)"/>
<path d="M559.675 321.323C559.675 321.323 562.899 372.524 560.883 376.966C558.867 381.407 549.994 420.881 549.994 420.881C549.994 420.881 560.883 427.329 564.506 424.874C568.129 422.418 583.061 364.799 583.061 364.799L590.347 329.796L559.675 321.323Z" fill="#606161"/>
<path d="M559.574 320.165C559.574 320.165 562.798 371.367 560.782 375.798C558.766 380.23 549.893 419.714 549.893 419.714C549.893 419.714 560.782 426.171 564.405 423.706C568.028 421.241 582.949 363.641 582.949 363.641L590.215 328.559L559.574 320.165Z" fill="url(#paint2_linear_711_2)"/>
<path d="M547.877 298.148C547.877 298.148 551.001 320.515 562.489 323.948C573.977 327.381 605.636 338.46 605.636 338.46C605.636 338.46 572.17 359.22 570.963 360.637C569.755 362.055 564.106 365.268 564.106 365.268L572.09 382.805C572.09 382.805 624.989 355.288 630.448 349.868C635.908 344.449 635.888 330.216 633.442 328.1C630.997 325.984 595.336 296.331 595.336 296.331L547.877 298.148Z" fill="#606161"/>
<path d="M547.877 298.148C547.877 298.148 551.001 320.515 562.489 323.948C573.977 327.381 605.636 338.46 605.636 338.46C605.636 338.46 572.17 359.22 570.963 360.637C569.755 362.055 564.106 365.268 564.106 365.268L572.09 382.805C572.09 382.805 624.989 355.288 630.448 349.868C635.908 344.449 635.888 330.216 633.442 328.1C630.997 325.984 595.336 296.331 595.336 296.331L547.877 298.148Z" fill="url(#paint3_linear_711_2)"/>
<path d="M621.614 197.338L621.069 197.141C620.319 196.869 619.489 197.258 619.217 198.009L611.721 218.734C611.45 219.486 611.838 220.315 612.59 220.587L613.134 220.783C613.885 221.055 614.715 220.666 614.986 219.915L622.483 199.191C622.754 198.439 622.365 197.61 621.614 197.338Z" fill="#4568DC"/>
<path d="M586.353 148.695C586.796 150.846 586.735 153.07 586.173 155.194C585.612 157.316 584.567 159.281 583.119 160.932C582.419 161.802 581.489 162.459 580.434 162.828C579.518 163.038 578.559 162.982 577.675 162.663C576.79 162.345 576.015 161.778 575.444 161.031C574.327 159.537 573.637 157.768 573.447 155.911C572.699 150.921 573.447 144.014 576.941 140.092C580.434 136.169 585.764 145.94 586.353 148.695Z" fill="#606161"/>
<path d="M586.353 148.695C586.796 150.846 586.735 153.07 586.173 155.194C585.612 157.316 584.567 159.281 583.119 160.932C582.419 161.802 581.489 162.459 580.434 162.828C579.518 163.038 578.559 162.982 577.675 162.663C576.79 162.345 576.015 161.778 575.444 161.031C574.327 159.537 573.637 157.768 573.447 155.911C572.699 150.921 573.447 144.014 576.941 140.092C580.434 136.169 585.764 145.94 586.353 148.695Z" fill="url(#paint4_linear_711_2)"/>
<path d="M564.813 187.161C564.813 188.798 564.753 190.814 563.306 191.582C562.806 191.803 562.266 191.916 561.719 191.912C559.869 192.144 557.992 191.796 556.349 190.914C555.407 190.233 554.647 189.331 554.136 188.286C553.626 187.241 553.382 186.087 553.425 184.925C553.524 182.614 554.075 180.345 555.052 178.248C556.529 174.615 558.395 170.962 561.559 168.646C562.038 168.246 562.618 167.987 563.236 167.898C566.35 167.688 568.326 173.886 567.947 176.262C567.388 180.104 564.933 183.148 564.813 187.161Z" fill="url(#paint5_linear_711_2)"/>
<path d="M544.253 185.205C544.253 185.205 555.591 182.939 560.582 187.63C565.572 192.321 576.302 201.683 580.084 209.847C583.867 218.012 585.374 231.316 585.374 231.316L595.355 296.331C595.355 296.331 554.833 302.679 547.876 298.147C540.92 293.616 548.784 250.07 545.76 243.712C542.736 237.354 531.847 202.891 536.688 194.427C541.528 185.963 544.253 185.205 544.253 185.205Z" fill="#4568DC"/>
<path d="M589.099 255.21C589.099 255.21 574.587 270.121 564.147 264.881C553.707 259.641 551.651 242.305 551.651 242.305L542.119 203.439L569.387 245.129L587.532 245.938L589.099 255.21Z" fill="url(#paint6_linear_711_2)"/>
<path d="M553.627 198.659L578.718 227.084L594.748 219.528C594.748 219.528 603.521 229.809 603.521 233.432C603.521 237.055 577.81 255.21 573.888 251.577C569.965 247.944 545.432 220.736 543.037 216.504C540.642 212.272 537.897 193.828 553.627 198.659Z" fill="#4568DC"/>
<path d="M561.559 168.696C561.559 168.696 558.994 178.178 562.997 182.859L565.113 183.917L567.947 176.312L561.559 168.696Z" fill="url(#paint7_linear_711_2)"/>
<path d="M582.859 166.291C583.222 166.764 583.424 167.341 583.437 167.938C583.382 168.22 583.263 168.487 583.088 168.716C581.361 171.341 578.567 173.058 576.601 175.503C575.223 177.2 574.006 179.406 571.85 179.755C570.473 179.873 569.098 179.522 567.947 178.757C562.538 175.653 561.14 169.515 561.959 167.04C562.777 164.564 563.955 162.229 564.883 159.774C565.951 156.829 566.69 153.516 569.125 151.569C570.799 150.416 572.748 149.727 574.774 149.573C575.553 149.41 576.359 149.427 577.13 149.623C579.435 150.372 582.12 153.466 582.359 155.901C582.739 159.205 581.212 163.227 582.859 166.291Z" fill="url(#paint8_linear_711_2)"/>
<path d="M574.905 158.706C572.759 159.803 570.104 159.394 567.919 160.412C564.525 162.009 563.547 166.261 561.481 169.395C560.313 171.152 558.736 172.589 557.409 174.226C551.041 182.071 550.801 193.369 545.262 201.823C545.106 202.118 544.871 202.363 544.583 202.531C544.294 202.643 543.982 202.681 543.675 202.641C538.602 202.35 533.734 200.541 529.702 197.451C529.233 197.208 528.872 196.8 528.687 196.306C528.502 195.812 528.508 195.266 528.704 194.776C531.499 181.951 539.004 170.603 542.398 157.917C543.296 154.583 543.905 151.16 545.232 147.936C546.569 144.868 548.437 142.061 550.752 139.642C552.935 137.149 555.697 135.23 558.796 134.053C563.627 132.426 569.006 133.544 573.628 135.69C578.618 137.985 581.932 141.578 581.253 147.278C580.804 151.06 578.368 156.939 574.905 158.706Z" fill="#606161"/>
<path d="M574.905 158.706C572.759 159.803 570.104 159.394 567.919 160.412C564.525 162.009 563.547 166.261 561.481 169.395C560.313 171.152 558.736 172.589 557.409 174.226C551.041 182.071 550.801 193.369 545.262 201.823C545.106 202.118 544.871 202.363 544.583 202.531C544.294 202.643 543.982 202.681 543.675 202.641C538.602 202.35 533.734 200.541 529.702 197.451C529.233 197.208 528.872 196.8 528.687 196.306C528.502 195.812 528.508 195.266 528.704 194.776C531.499 181.951 539.004 170.603 542.398 157.917C543.296 154.583 543.905 151.16 545.232 147.936C546.569 144.868 548.437 142.061 550.752 139.642C552.935 137.149 555.697 135.23 558.796 134.053C563.627 132.426 569.006 133.544 573.628 135.69C578.618 137.985 581.932 141.578 581.253 147.278C580.804 151.06 578.368 156.939 574.905 158.706Z" fill="url(#paint9_linear_711_2)"/>
<path d="M602.613 216.405C604.218 215.993 605.859 215.735 607.514 215.636C610.41 215.071 613.245 214.225 615.977 213.111C617.145 212.712 618.532 212.372 619.511 213.111C619.86 213.411 620.125 213.798 620.277 214.232C620.43 214.666 620.465 215.134 620.379 215.586C620.204 216.492 619.866 217.358 619.381 218.141L616.387 223.671C615.388 225.457 614.39 227.314 612.714 228.402C610.318 229.919 607.244 229.549 604.459 230.088C603.196 230.459 601.892 230.673 600.577 230.727C596.964 230.548 595.137 226.585 595.806 223.341C596.445 220.447 599.948 217.323 602.613 216.405Z" fill="url(#paint10_linear_711_2)"/>
<path d="M560.304 370.219C559.668 370.153 559.026 370.184 558.398 370.309C557.664 370.608 557.021 371.093 556.531 371.716C554.345 373.872 552.428 376.284 550.822 378.902C548.2 383.942 547.492 389.759 548.826 395.281C548.863 395.578 548.984 395.859 549.176 396.089C549.744 396.628 550.663 396.089 551.172 395.51L566.572 380.439L569.307 377.765C569.45 377.673 569.569 377.551 569.659 377.408C569.749 377.264 569.805 377.104 569.826 376.935C569.846 376.767 569.828 376.598 569.775 376.437C569.721 376.276 569.633 376.131 569.516 376.008L567.63 372.744C567.148 371.636 566.538 370.587 565.814 369.62C565.015 368.822 564.576 369.351 563.598 369.69C562.542 370.065 561.425 370.245 560.304 370.219Z" fill="url(#paint11_linear_711_2)"/>
<path d="M550.573 368.642C547.201 368.788 543.864 369.403 540.662 370.469C539.435 370.818 537.937 371.517 538.007 372.794C538.077 374.072 539.444 374.631 539.884 375.629C540.161 376.627 540.061 377.693 539.604 378.623C537.936 383.24 537.204 388.143 537.448 393.045C537.689 397.974 539.556 402.684 542.758 406.439C543.17 406.997 543.695 407.463 544.299 407.807C544.902 408.151 545.571 408.365 546.261 408.436C547.958 408.436 549.256 406.899 549.974 405.361C552.11 400.79 551.182 395.461 551.192 390.39C551.178 385.36 552.173 380.379 554.116 375.738C554.635 374.541 556.891 371.986 556.641 370.698C556.212 368.762 552.13 368.692 550.573 368.642Z" fill="#4568DC"/>
<path d="M526.427 170.663H135.359V442.4H526.427V170.663Z" fill="white"/>
<path d="M140.402 139.103C142.905 139.103 144.934 137.074 144.934 134.572C144.934 132.07 142.905 130.041 140.402 130.041C137.899 130.041 135.871 132.07 135.871 134.572C135.871 137.074 137.899 139.103 140.402 139.103Z" fill="url(#paint12_linear_711_2)"/>
<path d="M155.522 139.103C158.025 139.103 160.053 137.074 160.053 134.572C160.053 132.07 158.025 130.041 155.522 130.041C153.019 130.041 150.99 132.07 150.99 134.572C150.99 137.074 153.019 139.103 155.522 139.103Z" fill="url(#paint13_linear_711_2)"/>
<path d="M170.643 139.103C173.145 139.103 175.174 137.074 175.174 134.572C175.174 132.07 173.145 130.041 170.643 130.041C168.139 130.041 166.111 132.07 166.111 134.572C166.111 137.074 168.139 139.103 170.643 139.103Z" fill="url(#paint14_linear_711_2)"/>
<path opacity="0.24" d="M203.899 165.423H137.377V449.656H203.899V165.423Z" fill="#4568DC"/>
<path opacity="0.24" d="M510.768 165.423H418.785V449.656H510.768V165.423Z" fill="#4568DC"/>
<path opacity="0.24" d="M410.672 165.423H211.564V449.656H410.672V165.423Z" fill="#4568DC"/>
<path opacity="0.24" d="M409.963 206.234H220.627V327.202H409.963V206.234Z" fill="#4568DC"/>
<path opacity="0.24" d="M508.852 192.66H430.193V247.924H508.852V192.66Z" fill="#4568DC"/>
<path d="M163.586 171.062H142.217V196.054H163.586V171.062Z" fill="white"/>
<path d="M350.978 181.751H338.152V196.054H350.978V181.751Z" fill="white"/>
<path d="M274.155 181.642H226.277V196.064H274.155V181.642Z" fill="white"/>
<path d="M405.67 201.803H216.604V320.055H405.67V201.803Z" fill="white"/>
<path d="M330.097 181.642H282.219V196.064H330.097V181.642Z" fill="white"/>
<path d="M196.632 201.603H142.217V204.308H196.632V201.603Z" fill="white"/>
<path d="M196.632 208.56H142.217V211.264H196.632V208.56Z" fill="white"/>
<path d="M196.632 215.516H142.217V218.221H196.632V215.516Z" fill="white"/>
<path opacity="0.24" d="M400.082 225.068H221.076V314.566H400.082V225.068Z" fill="#4568DC"/>
<path d="M504.661 191.622H427.25V241.616H504.661V191.622Z" fill="white"/>
<path opacity="0.24" d="M184.366 281.529H93.4112C86.6311 281.529 81.1348 287.026 81.1348 293.806V381.128C81.1348 387.908 86.6311 393.404 93.4112 393.404H184.366C191.146 393.404 196.643 387.908 196.643 381.128V293.806C196.643 287.026 191.146 281.529 184.366 281.529Z" fill="#4568DC"/>
<path d="M177.589 273.974H86.6338C79.8538 273.974 74.3574 279.471 74.3574 286.251V373.573C74.3574 380.353 79.8538 385.849 86.6338 385.849H177.589C184.369 385.849 189.865 380.353 189.865 373.573V286.251C189.865 279.471 184.369 273.974 177.589 273.974Z" fill="white"/>
<path d="M154.385 305.169C153.955 302.879 153.268 300.758 152.322 298.891C148.796 291.765 141.833 287.947 132.806 287.947H111.915V298.043H119.308V294.14H131.774C137.019 294.14 140.973 295.922 143.552 298.891C145.1 300.588 146.131 302.709 146.819 305.169C147.249 306.951 147.421 308.817 147.421 310.853C147.421 323.07 141.489 328.923 130.656 328.923H119.308V306.018H111.915V372.784H119.308V335.286H131.431C132.548 335.286 133.665 335.286 134.697 335.201C140.457 334.608 145.1 332.487 148.367 329.263C152.752 324.936 154.901 318.573 154.901 310.853C154.901 308.902 154.729 306.951 154.385 305.169ZM107.186 363.282V335.201H111.141V329.263H107.186V305.169H145.96C145.358 302.963 144.326 300.927 142.951 299.4L142.435 298.891H100.309V363.282H107.186ZM153.268 298.891C154.127 300.758 154.815 302.879 155.245 305.169H164.186V298.891H153.268ZM149.485 329.263C147.421 331.469 144.928 333.165 141.919 334.268C141.059 334.608 140.2 334.947 139.254 335.201H157.652V329.263H149.485Z" fill="url(#paint15_linear_711_2)" fill-opacity="0.48"/>
<path d="M236.706 284.953L227.773 254.664H236.943L241.084 273.298H241.32L246.231 254.664H253.448L258.359 273.358H258.595L262.736 254.664H271.906L262.973 284.953H255.105L249.958 268.033H249.721L244.574 284.953H236.706ZM274.567 284.953V254.664H296.396V261.289H282.791V266.495H295.273V273.122H282.791V278.328H296.338V284.953H274.567ZM316.64 284.953H307.767L317.764 254.664H329.004L339.002 284.953H330.128L323.502 263.005H323.266L316.64 284.953ZM314.984 273.003H331.666V279.155H314.984V273.003ZM341.919 284.953V254.664H354.993C357.24 254.664 359.208 255.073 360.893 255.892C362.58 256.71 363.891 257.888 364.828 259.426C365.764 260.964 366.233 262.808 366.233 264.957C366.233 267.126 365.75 268.956 364.784 270.445C363.827 271.933 362.481 273.057 360.746 273.816C359.02 274.576 357.004 274.955 354.697 274.955H346.888V268.566H353.041C354.007 268.566 354.83 268.448 355.511 268.211C356.2 267.964 356.728 267.575 357.093 267.042C357.468 266.51 357.655 265.816 357.655 264.957C357.655 264.09 357.468 263.385 357.093 262.842C356.728 262.29 356.2 261.886 355.511 261.63C354.83 261.363 354.007 261.23 353.041 261.23H350.142V284.953H341.919ZM359.666 271.051L367.238 284.953H358.305L350.911 271.051H359.666ZM369.738 284.953V254.664H391.567V261.289H377.961V266.495H390.444V273.122H377.961V278.328H391.508V284.953H369.738Z" fill="white"/>
</g>
</g>
<defs>
<linearGradient id="paint0_linear_711_2" x1="328.48" y1="94.8684" x2="328.48" y2="309.346" gradientUnits="userSpaceOnUse">
<stop offset="0.12" stop-color="#010101" stop-opacity="0"/>
<stop offset="0.95" stop-color="#010101"/>
</linearGradient>
<linearGradient id="paint1_linear_711_2" x1="550.193" y1="431.112" x2="574.786" y2="431.112" gradientUnits="userSpaceOnUse">
<stop stop-color="#E5C6D6"/>
<stop offset="0.42" stop-color="#EAD4D0"/>
<stop offset="1" stop-color="#F0E9CB"/>
</linearGradient>
<linearGradient id="paint2_linear_711_2" x1="558.376" y1="451.403" x2="579.346" y2="290.133" gradientUnits="userSpaceOnUse">
<stop offset="0.12" stop-color="#010101" stop-opacity="0"/>
<stop offset="0.95" stop-color="#010101"/>
</linearGradient>
<linearGradient id="paint3_linear_711_2" x1="542.787" y1="358.262" x2="664.952" y2="268.145" gradientUnits="userSpaceOnUse">
<stop offset="0.12" stop-color="#010101" stop-opacity="0"/>
<stop offset="0.95" stop-color="#010101"/>
</linearGradient>
<linearGradient id="paint4_linear_711_2" x1="574.615" y1="152.548" x2="587.311" y2="148.515" gradientUnits="userSpaceOnUse">
<stop offset="0.12" stop-color="#010101" stop-opacity="0"/>
<stop offset="0.95" stop-color="#010101"/>
</linearGradient>
<linearGradient id="paint5_linear_711_2" x1="553.425" y1="179.945" x2="567.997" y2="179.945" gradientUnits="userSpaceOnUse">
<stop stop-color="#E5C6D6"/>
<stop offset="0.42" stop-color="#EAD4D0"/>
<stop offset="1" stop-color="#F0E9CB"/>
</linearGradient>
<linearGradient id="paint6_linear_711_2" x1="544.784" y1="255.889" x2="616.756" y2="163.975" gradientUnits="userSpaceOnUse">
<stop offset="0.12" stop-color="#010101" stop-opacity="0"/>
<stop offset="0.95" stop-color="#010101"/>
</linearGradient>
<linearGradient id="paint7_linear_711_2" x1="566.23" y1="182.14" x2="549.802" y2="139.902" gradientUnits="userSpaceOnUse">
<stop stop-color="#010101" stop-opacity="0"/>
<stop offset="0.95" stop-color="#010101"/>
</linearGradient>
<linearGradient id="paint8_linear_711_2" x1="561.749" y1="164.634" x2="583.457" y2="164.634" gradientUnits="userSpaceOnUse">
<stop stop-color="#E5C6D6"/>
<stop offset="0.42" stop-color="#EAD4D0"/>
<stop offset="1" stop-color="#F0E9CB"/>
</linearGradient>
<linearGradient id="paint9_linear_711_2" x1="519.412" y1="152.248" x2="606.095" y2="191.752" gradientUnits="userSpaceOnUse">
<stop offset="0.12" stop-color="#010101" stop-opacity="0"/>
<stop offset="0.95" stop-color="#010101"/>
</linearGradient>
<linearGradient id="paint10_linear_711_2" x1="595.716" y1="221.705" x2="620.409" y2="221.705" gradientUnits="userSpaceOnUse">
<stop stop-color="#E5C6D6"/>
<stop offset="0.42" stop-color="#EAD4D0"/>
<stop offset="1" stop-color="#F0E9CB"/>
</linearGradient>
<linearGradient id="paint11_linear_711_2" x1="548.187" y1="382.755" x2="569.866" y2="382.755" gradientUnits="userSpaceOnUse">
<stop stop-color="#E5C6D6"/>
<stop offset="0.42" stop-color="#EAD4D0"/>
<stop offset="1" stop-color="#F0E9CB"/>
</linearGradient>
<linearGradient id="paint12_linear_711_2" x1="140.652" y1="116.097" x2="140.053" y2="160.542" gradientUnits="userSpaceOnUse">
<stop offset="0.12" stop-color="#010101" stop-opacity="0"/>
<stop offset="0.95" stop-color="#010101"/>
</linearGradient>
<linearGradient id="paint13_linear_711_2" x1="155.771" y1="116.097" x2="155.162" y2="160.542" gradientUnits="userSpaceOnUse">
<stop offset="0.12" stop-color="#010101" stop-opacity="0"/>
<stop offset="0.95" stop-color="#010101"/>
</linearGradient>
<linearGradient id="paint14_linear_711_2" x1="170.892" y1="116.097" x2="170.283" y2="160.542" gradientUnits="userSpaceOnUse">
<stop offset="0.12" stop-color="#010101" stop-opacity="0"/>
<stop offset="0.95" stop-color="#010101"/>
</linearGradient>
<linearGradient id="paint15_linear_711_2" x1="73.8966" y1="369.211" x2="190.598" y2="369.211" gradientUnits="userSpaceOnUse">
<stop stop-color="#4568DC"/>
<stop offset="1" stop-color="#B06AB3"/>
</linearGradient>
<clipPath id="clip0_711_2">
<rect width="677.697" height="520" fill="white" transform="translate(0.5 0.5)"/>
</clipPath>
</defs>
</svg>
