<svg width="718" height="520" viewBox="0 0 718 520" fill="none" xmlns="http://www.w3.org/2000/svg">
<g clip-path="url(#clip0_711_56)">
<path opacity="0.18" d="M114.364 108.877C93.1638 113.372 71.1269 118.25 54.1071 131.672C39.7353 142.995 17.3413 163.9 10.556 180.885C-18.1877 252.631 14.3101 339.933 77.3895 384.582C107.057 405.582 144.031 415.747 170.693 440.467C187.556 456.102 199.367 476.797 217.31 491.169C243.528 512.152 278.927 516.794 312.426 519.042C335.7 520.618 359.879 521.298 381.472 512.448C397.081 506.055 410.303 495.089 423.281 484.279L509.26 412.481C523.074 400.957 535.991 382.605 553.978 382.727C715.866 383.885 726.78 193.367 478.321 108.982C456.423 101.543 441.407 80.8654 420.833 70.2651C378.336 48.3589 329.428 55.4577 286.565 70.6135C232.144 89.9066 170.841 96.8661 114.364 108.877Z" fill="#4568DC"/>
<path opacity="0.05" d="M678.586 416.226C685.363 416.34 694.09 418.029 695.135 424.719C695.702 428.203 693.707 431.591 691.547 434.405C678.037 452.06 655.652 460.988 633.563 463.384C611.474 465.779 589.21 462.425 567.156 459.708C535.283 455.771 503.287 453.158 471.17 451.869C448.331 450.945 424.309 450.37 404.641 438.734C400.991 436.582 397.403 433.891 395.652 430.023C392.168 422.332 397.673 412.969 405.233 409.232C412.794 405.495 421.678 405.861 430.11 406.314C512.909 410.774 595.647 416.226 678.586 416.226Z" fill="#000405"/>
<path d="M678.875 110.097C678.875 110.097 649.409 148.204 643.817 154.589C633.617 166.191 627.041 181.408 627.041 181.408L612.233 244.417L595.684 240.001L559.702 230.42C559.702 230.42 572.489 195.98 566.296 185.528C558.038 171.591 565.181 162.881 567.062 156.897C570.546 145.809 552.751 125.54 552.751 125.54L541.35 74.4723L558.561 72.1729L571.051 113.573L592.452 132.674L607.695 133.484C607.695 133.484 619.193 135.853 627.555 131.986C635.551 128.275 663.798 96.4221 663.798 96.4221L675.321 106.874L678.875 110.097Z" fill="#4568DC"/>
<path d="M537.707 174.718V401.672C537.706 404.515 537.145 407.331 536.056 409.958C534.966 412.584 533.37 414.971 531.359 416.981C529.347 418.991 526.96 420.585 524.332 421.672C521.704 422.759 518.889 423.318 516.045 423.317H176.616C170.874 423.317 165.366 421.035 161.305 416.975C157.244 412.914 154.963 407.406 154.963 401.663V174.718C154.961 168.979 157.237 163.473 161.293 159.411C165.348 155.349 170.85 153.063 176.59 153.056H516.045C518.89 153.055 521.707 153.615 524.336 154.703C526.965 155.791 529.353 157.387 531.365 159.398C533.377 161.41 534.972 163.799 536.061 166.427C537.149 169.056 537.708 171.873 537.707 174.718Z" fill="#4568DC"/>
<path d="M531.837 159.98H160.268L163.281 157.672C163.421 157.551 163.566 157.438 163.717 157.332L340.465 21.8363L346.048 17.5596L525.888 155.425L531.837 159.98Z" fill="#4568DC"/>
<path d="M537.707 174.718L533.187 177.984L500.271 201.824L340.464 317.574L186.773 199.211L154.963 174.718L155.372 170.511C156.146 166.566 158.011 162.918 160.755 159.98C161.525 159.142 162.364 158.37 163.264 157.672C163.403 157.551 163.548 157.438 163.699 157.332C167.429 154.547 171.961 153.046 176.616 153.056H516.045C521.427 153.06 526.614 155.067 530.598 158.684C534.583 162.301 537.08 167.271 537.603 172.628C537.672 173.324 537.707 174.021 537.707 174.718Z" fill="#4568DC"/>
<path opacity="0.61" d="M163.264 157.655C162.368 158.357 161.53 159.129 160.755 159.963H160.268L163.264 157.655Z" fill="url(#paint0_linear_711_56)"/>
<path d="M537.707 174.718L533.187 177.993L500.271 201.824L340.464 317.574L186.773 199.22L154.963 174.718L155.372 170.52C156.379 165.425 159.179 160.861 163.264 157.655L163.699 157.324L340.464 21.8363L346.048 17.5596L525.888 155.425C529.131 157.076 531.905 159.519 533.952 162.528C536 165.537 537.256 169.013 537.603 172.636C537.673 173.328 537.707 174.023 537.707 174.718Z" fill="url(#paint1_linear_711_56)"/>
<path d="M500.271 157.951V201.833L441.295 244.513L427.768 254.338L340.465 317.574L258.354 254.338L245.628 244.548L186.756 199.255V157.951C186.756 156.261 187.089 154.589 187.735 153.028C188.382 151.467 189.329 150.049 190.524 148.854C191.719 147.659 193.137 146.712 194.698 146.065C196.258 145.419 197.931 145.086 199.621 145.086H487.415C490.825 145.091 494.094 146.448 496.504 148.86C498.914 151.272 500.269 154.541 500.271 157.951Z" fill="white"/>
<path d="M457.052 196.424H224.489C223.846 196.424 223.21 196.297 222.616 196.051C222.022 195.805 221.482 195.445 221.028 194.99C220.573 194.536 220.212 193.996 219.966 193.402C219.72 192.808 219.594 192.172 219.594 191.529C219.594 190.886 219.72 190.25 219.966 189.656C220.212 189.062 220.573 188.522 221.028 188.068C221.482 187.613 222.022 187.252 222.616 187.006C223.21 186.76 223.846 186.634 224.489 186.634H457.052C457.695 186.634 458.331 186.76 458.925 187.006C459.519 187.252 460.059 187.613 460.513 188.068C460.968 188.522 461.328 189.062 461.574 189.656C461.82 190.25 461.947 190.886 461.947 191.529C461.947 192.827 461.431 194.072 460.513 194.99C459.595 195.908 458.35 196.424 457.052 196.424Z" fill="url(#paint2_linear_711_56)"/>
<path d="M457.052 225.386H224.489C223.846 225.386 223.21 225.259 222.616 225.013C222.022 224.767 221.482 224.406 221.028 223.952C220.573 223.497 220.212 222.958 219.966 222.364C219.72 221.77 219.594 221.133 219.594 220.49C219.594 219.848 219.72 219.211 219.966 218.617C220.212 218.023 220.573 217.484 221.028 217.029C221.482 216.574 222.022 216.214 222.616 215.968C223.21 215.722 223.846 215.595 224.489 215.595H457.052C458.35 215.595 459.595 216.111 460.513 217.029C461.431 217.947 461.947 219.192 461.947 220.49C461.947 221.789 461.431 223.034 460.513 223.952C459.595 224.87 458.35 225.386 457.052 225.386Z" fill="url(#paint3_linear_711_56)"/>
<path d="M441.294 244.548L427.767 254.338H258.354L245.637 244.548H441.294Z" fill="url(#paint4_linear_711_56)"/>
<path opacity="0.05" d="M340.466 317.575L198.611 423.334H485.247L340.466 317.575Z" fill="#000405"/>
<path d="M218.105 78.5663C210.962 63.245 184.135 65.7623 184.135 65.7623C200.684 55.9981 197.514 31.2001 197.313 29.7368C204.552 51.3556 229.541 46.5824 231.78 46.112C215.187 50.2058 218.105 78.5663 218.105 78.5663Z" fill="#4568DC"/>
<path d="M171.592 110.001C167.054 100.263 149.99 101.866 149.99 101.866C160.791 95.4466 158.343 78.9233 158.343 78.9233V79.0192C162.977 92.6855 178.83 89.6543 180.241 89.3582C169.736 91.9712 171.592 110.001 171.592 110.001Z" fill="#4568DC"/>
<path d="M628.495 80.7435C630.599 79.0545 633.259 78.2154 635.951 78.3917C637.921 78.3117 639.85 78.9772 641.351 80.2557C642.508 81.5539 643.243 83.1729 643.459 84.8983C643.884 87.0365 644.045 89.2187 643.938 91.3961C643.747 95.3941 642.71 99.6272 644.435 103.242C644.844 104.102 645.398 104.886 646.072 105.559C646.852 106.431 647.937 106.971 649.103 107.066C649.683 107.092 650.253 106.909 650.71 106.551C651.167 106.193 651.481 105.684 651.594 105.115C651.096 106.226 650.382 107.228 649.495 108.063C648.608 108.897 647.565 109.549 646.425 109.979C645.286 110.41 644.072 110.611 642.855 110.572C641.637 110.532 640.44 110.252 639.33 109.749C638.608 109.418 637.929 109 637.31 108.503L638.825 111.578C637.57 111.256 636.354 110.794 635.202 110.201C631.5 108.189 629.427 104.104 628.443 99.9757C627.572 96.1867 627.397 92.2758 626.579 88.4695C625.978 85.569 626.134 82.8514 628.495 80.7435Z" fill="#3F3D56"/>
<path d="M627.38 84.9245C628.132 84.898 628.882 85.0132 629.592 85.2642C630.181 85.5089 630.691 85.9103 631.067 86.4248C631.443 86.9392 631.671 87.5471 631.726 88.1821C631.76 88.8205 631.606 89.4548 631.284 90.0072C630.962 90.5596 630.486 91.006 629.914 91.2917C629.169 91.5958 628.367 91.7355 627.563 91.7011C626.831 91.7011 626.091 91.7011 625.359 91.6314C625.131 91.652 624.902 91.5893 624.717 91.4548C624.531 91.3203 624.4 91.1231 624.349 90.8997C623.871 89.9513 623.511 88.948 623.277 87.9121C622.676 84.7068 624.836 84.8984 627.38 84.9245Z" fill="#4568DC"/>
<path d="M613.199 115.506C613.199 115.506 613.059 118.024 612.885 121.299C612.737 124.06 612.554 127.396 612.406 130.166C612.154 134.851 610.141 139.269 606.771 142.534C604.802 144.546 600.107 148.3 596.527 146.968C594.785 146.323 594.724 144.128 595.09 142.813C595.898 140.415 596.347 137.912 596.423 135.383C596.48 133.336 596.296 131.29 595.874 129.286C593.636 123.685 613.199 115.506 613.199 115.506Z" fill="url(#paint5_linear_711_56)"/>
<path d="M613.2 115.506C613.2 115.506 613.06 118.024 612.886 121.299C611.51 124.365 610.221 126.864 609.515 128.11C608.096 130.627 602.26 134.59 596.45 135.383C596.507 133.336 596.323 131.29 595.901 129.286C593.637 123.685 613.2 115.506 613.2 115.506Z" fill="url(#paint6_linear_711_56)"/>
<path d="M596.162 82.1549C591.206 82.4553 586.574 84.7118 583.282 88.428C579.991 92.1441 578.31 97.0155 578.61 101.971C578.61 102.415 578.68 102.842 578.741 103.295C579.323 110.905 581.277 118.347 584.507 125.262C590.604 135.714 606.056 127.117 608.504 122.814C610.951 118.511 620.341 99.105 616.395 93.6088C613.678 89.8983 606.143 81.7542 596.162 82.1549Z" fill="url(#paint7_linear_711_56)"/>
<path d="M590.674 71.5369C597.23 69.6231 604.223 69.8274 610.655 72.1205C616.988 74.5246 622.449 79.472 624.862 85.8043C626.934 91.6731 626.735 98.1049 624.304 103.834C621.853 109.517 617.947 114.453 612.981 118.145C611.701 114.226 615.646 110.742 617.179 106.918C617.537 106.212 617.614 105.397 617.397 104.636C616.84 103.216 614.714 103.059 613.504 103.983C612.293 104.906 611.762 106.465 611.317 107.92C612.493 101.692 613.364 94.3751 608.957 89.811C606.344 87.1108 602.398 86.1004 598.635 86.0656C595.18 86.0554 591.759 86.7543 588.584 88.1192C585.409 89.4841 582.548 91.4858 580.178 94.0006C578.793 95.49 576.825 97.3192 575.065 96.2914C574.518 95.917 574.089 95.3943 573.829 94.7845C568.629 84.489 582.286 73.8364 590.674 71.5369Z" fill="#3F3D56"/>
<path d="M599.089 83.0432C594.734 81.1269 590.161 79.5591 585.432 79.5591C580.702 79.5591 575.798 81.1618 572.671 84.7155C571.038 86.6957 569.85 89.0038 569.187 91.4834C568.664 93.035 568.457 94.6758 568.578 96.3088C568.767 97.4931 569.058 98.6588 569.449 99.7929C570.267 102.615 570.616 105.89 568.83 108.259C568.499 108.731 568.065 109.122 567.561 109.403C567.057 109.683 566.497 109.846 565.921 109.879C565.344 109.89 564.784 109.689 564.344 109.315C563.905 108.942 563.617 108.421 563.534 107.85C562.768 110.019 564.022 112.562 566.017 113.703C567.045 114.225 568.171 114.524 569.323 114.579C570.474 114.635 571.624 114.446 572.697 114.025C573.6 113.742 574.438 113.283 575.162 112.675C575.88 111.986 576.469 111.175 576.905 110.28C578.725 106.979 579.64 103.312 580.998 99.7494C582.357 96.1869 584.326 92.7812 587.54 90.7778C590.086 89.3867 592.948 88.6757 595.849 88.7135C598.732 88.6177 601.633 88.8529 604.507 88.5916C607.382 88.3303 605.3 86.6231 604.063 85.7259C602.501 84.6642 600.835 83.7653 599.089 83.0432Z" fill="#3F3D56"/>
<path d="M716.076 51.817C716.816 52.3919 709.883 57.7923 709.883 57.7923C709.883 57.7923 706.643 63.3755 703.35 64.9259C700.058 66.4763 675.321 106.866 675.321 106.866L665.557 98.016L686.618 69.6817C686.618 69.6817 693.586 56.3289 692.811 50.5192C692.811 50.5192 693.229 43.6556 695.328 46.8435C696.809 49.1169 695.859 52.6968 697.61 53.08C697.804 53.0969 697.999 53.0544 698.168 52.9581C699.62 52.0772 700.953 51.0115 702.131 49.7876C705.615 46.469 709.778 41.8526 709.778 41.8526C709.778 41.8526 712.06 40.8857 711.773 41.8526C711.486 42.8194 707.296 49.3433 707.061 49.6918C707.453 49.3346 713.881 43.5946 714.9 44.0388C715.919 44.483 709.918 51.0941 709.569 51.4773C709.944 51.216 716.799 46.4428 717.313 46.8696C718.28 47.6797 712.087 53.0539 711.573 53.4633C711.965 53.2542 715.37 51.2596 716.076 51.817Z" fill="url(#paint8_linear_711_56)"/>
<path d="M708.724 55.9544C708.204 56.1236 707.652 56.1684 707.112 56.085C705.356 55.9515 703.593 55.9224 701.834 55.9979C700.649 56.0502 698.202 56.8689 698.141 55.0311C698.141 54.5433 698.263 54.0642 698.236 53.5765C698.225 53.3654 698.195 53.1556 698.149 52.9493C699.602 52.0685 700.934 51.0027 702.112 49.7788C702.646 49.9571 703.151 50.2124 703.611 50.5366L707.042 52.7577C707.652 53.1584 708.262 53.559 708.845 53.9946C709.104 54.1562 709.309 54.3892 709.438 54.6652C709.492 54.93 709.45 55.2055 709.319 55.4419C709.188 55.6783 708.977 55.8601 708.724 55.9544Z" fill="url(#paint9_linear_711_56)"/>
<path d="M538.639 6.46289C537.698 6.56741 540.747 14.8073 540.747 14.8073C540.747 14.8073 540.555 21.2615 542.489 24.3101C544.423 27.3587 544.231 74.089 544.231 74.089L557.192 72.347L554.248 37.149C554.248 37.149 555.372 22.1326 559.091 17.612C559.091 17.612 562.348 11.5584 558.89 13.161C556.434 14.3108 555.345 17.8471 553.664 17.2548C553.487 17.1713 553.342 17.0301 553.255 16.8542C552.463 15.3452 551.877 13.7369 551.513 12.0723C550.285 7.4123 549.205 1.29773 549.205 1.29773C549.205 1.29773 547.811 -0.705621 547.585 0.261213C547.358 1.22805 547.436 8.97143 547.445 9.41565C547.297 8.91917 544.832 0.627042 543.743 0.478969C542.655 0.330895 544.257 9.10208 544.362 9.60728C544.17 9.18919 540.878 1.52419 540.198 1.6113C538.953 1.79421 541.426 9.65083 541.609 10.2344C541.365 9.85116 539.528 6.37579 538.639 6.46289Z" fill="url(#paint10_linear_711_56)"/>
<path d="M542.646 13.8579C543.009 14.2757 543.465 14.6012 543.979 14.8073C545.54 15.6254 547.052 16.5327 548.508 17.5249C549.492 18.1956 551.121 20.199 552.158 18.6486C552.436 18.2479 552.567 17.7775 552.846 17.3681C552.973 17.195 553.109 17.0292 553.255 16.8717C552.463 15.3627 551.878 13.7544 551.513 12.0898C550.966 11.961 550.402 11.914 549.841 11.9504L545.756 12.0288C545.023 12.0129 544.289 12.0449 543.561 12.1246C543.251 12.1227 542.947 12.2137 542.69 12.3859C542.506 12.5849 542.401 12.8434 542.393 13.1138C542.385 13.3842 542.475 13.6484 542.646 13.8579Z" fill="url(#paint11_linear_711_56)"/>
<path d="M492.711 417.402C489.227 424.518 486.692 430.049 486.692 430.049L442.854 432.14C442.854 432.14 450.118 412.916 461.938 417.881C465.936 419.554 480.421 416.409 480.421 416.409L480.874 414.955L492.711 417.402Z" fill="url(#paint12_linear_711_56)"/>
<path d="M648.084 419.554L641.369 423.317L583.881 362.885L577.54 282.211L525.122 329.76C525.122 329.76 526.524 362.502 508.198 388.119C504.914 392.709 498.234 406.044 493.182 416.462C493.025 416.784 492.868 417.115 492.72 417.437L491.736 417.237L488.313 416.523L480.883 414.99L504.975 317.61L559.719 230.455L595.701 240.036L612.25 244.452C612.25 244.452 623.417 266.829 612.25 324.743L604.847 357.894C604.847 357.894 634.688 373.808 643.886 405.287L648.041 419.536L648.084 419.554Z" fill="#3F3D56"/>
<path d="M648.084 419.554L654.904 426.687L637.588 444.735H614.941C614.941 444.735 619.767 436.765 629.418 435.502C639.069 434.239 641.377 423.308 641.377 423.308L648.084 419.554Z" fill="url(#paint13_linear_711_56)"/>
<path opacity="0.22" d="M187.976 64.508L184.152 65.7623C200.702 55.9981 197.531 31.2001 197.331 29.7368C197.592 30.9127 201.442 47.2792 199.343 52.6534C196.721 59.369 187.976 64.508 187.976 64.508Z" fill="white"/>
<path opacity="0.22" d="M160.626 94.4535C158.605 97.2495 150.574 101.561 150.025 101.848C160.826 95.429 158.378 78.9058 158.378 78.9058V79.0016C158.805 80.1339 162.594 91.7185 160.626 94.4535Z" fill="white"/>
<path opacity="0.22" d="M155.607 186.634L333.008 323.132L340.464 317.575L154.963 174.718L155.607 186.634Z" fill="white"/>
<path opacity="0.22" d="M346.336 322.252L537.708 184.509V175.11L340.465 317.958L346.336 322.252Z" fill="white"/>
<path opacity="0.22" d="M537.603 173.02L537.081 174.483L533.187 178.376C535.922 173.656 528.196 162.698 528.196 162.698L525.113 160.39L515.854 153.422L340.465 22.2284L346.048 17.9517L525.888 155.808C529.13 157.462 531.902 159.905 533.95 162.914C535.998 165.922 537.254 169.398 537.603 173.02Z" fill="white"/>
<path d="M678.875 110.097C678.875 110.097 649.408 148.204 643.816 154.589C633.617 166.191 627.04 181.408 627.04 181.408L612.233 244.417L595.684 240.001C595.684 240.001 611.136 182.227 617.346 169.963C623.556 157.699 675.304 106.866 675.304 106.866L678.875 110.097Z" fill="url(#paint14_linear_711_56)"/>
<path d="M648.041 419.536C647.736 418.665 637.902 391.35 623.138 379.896C608.148 368.259 599.438 352.198 599.438 352.198C595.953 321.364 595.666 240.001 595.666 240.001L612.215 244.418C612.215 244.418 623.382 266.794 612.215 324.708L604.812 357.859C604.812 357.859 634.653 373.808 643.851 405.287L648.041 419.536Z" fill="#25233A"/>
<path d="M525.122 329.743C525.122 329.743 526.524 362.484 508.198 388.101C504.914 392.691 498.233 406.027 493.182 416.444L491.736 417.219L488.312 416.505L516.725 326.886C516.725 326.886 551.139 286.113 557.454 282.211C563.769 278.309 577.557 282.211 577.557 282.211L525.122 329.743Z" fill="#25233A"/>
</g>
<defs>
<linearGradient id="paint0_linear_711_56" x1="160.381" y1="162.55" x2="163.717" y2="153.483" gradientUnits="userSpaceOnUse">
<stop offset="0.36" stop-color="#00272E"/>
<stop offset="0.75" stop-color="#3F80A1" stop-opacity="0.25"/>
<stop offset="1" stop-color="#69B9EB" stop-opacity="0"/>
</linearGradient>
<linearGradient id="paint1_linear_711_56" x1="387.334" y1="27.5328" x2="281.94" y2="402.072" gradientUnits="userSpaceOnUse">
<stop stop-opacity="0"/>
<stop offset="0.91" stop-opacity="0.8"/>
<stop offset="1"/>
</linearGradient>
<linearGradient id="paint2_linear_711_56" x1="353.496" y1="130.505" x2="289.911" y2="435.363" gradientUnits="userSpaceOnUse">
<stop stop-opacity="0"/>
<stop offset="0.91" stop-opacity="0.8"/>
<stop offset="1"/>
</linearGradient>
<linearGradient id="paint3_linear_711_56" x1="359.288" y1="131.707" x2="295.704" y2="436.565" gradientUnits="userSpaceOnUse">
<stop stop-opacity="0"/>
<stop offset="0.91" stop-opacity="0.8"/>
<stop offset="1"/>
</linearGradient>
<linearGradient id="paint4_linear_711_56" x1="366.674" y1="133.257" x2="303.089" y2="438.115" gradientUnits="userSpaceOnUse">
<stop stop-opacity="0"/>
<stop offset="0.91" stop-opacity="0.8"/>
<stop offset="1"/>
</linearGradient>
<linearGradient id="paint5_linear_711_56" x1="594.916" y1="131.376" x2="613.208" y2="131.376" gradientUnits="userSpaceOnUse">
<stop stop-color="#ECC4D7"/>
<stop offset="0.42" stop-color="#EFD4D1"/>
<stop offset="1" stop-color="#F2EAC9"/>
</linearGradient>
<linearGradient id="paint6_linear_711_56" x1="604.629" y1="121.203" x2="600.857" y2="163.491" gradientUnits="userSpaceOnUse">
<stop stop-color="#ECC4D7"/>
<stop offset="0.42" stop-color="#EFD4D1"/>
<stop offset="1" stop-color="#F2EAC9"/>
</linearGradient>
<linearGradient id="paint7_linear_711_56" x1="578.576" y1="106.186" x2="617.354" y2="106.186" gradientUnits="userSpaceOnUse">
<stop stop-color="#ECC4D7"/>
<stop offset="0.42" stop-color="#EFD4D1"/>
<stop offset="1" stop-color="#F2EAC9"/>
</linearGradient>
<linearGradient id="paint8_linear_711_56" x1="665.557" y1="74.1413" x2="717.417" y2="74.1413" gradientUnits="userSpaceOnUse">
<stop stop-color="#ECC4D7"/>
<stop offset="0.42" stop-color="#EFD4D1"/>
<stop offset="1" stop-color="#F2EAC9"/>
</linearGradient>
<linearGradient id="paint9_linear_711_56" x1="705.483" y1="68.0006" x2="700.24" y2="27.289" gradientUnits="userSpaceOnUse">
<stop stop-color="#ECC4D7"/>
<stop offset="0.42" stop-color="#EFD4D1"/>
<stop offset="1" stop-color="#F2EAC9"/>
</linearGradient>
<linearGradient id="paint10_linear_711_56" x1="570.361" y1="53.2639" x2="526.352" y2="25.828" gradientUnits="userSpaceOnUse">
<stop stop-color="#ECC4D7"/>
<stop offset="0.42" stop-color="#EFD4D1"/>
<stop offset="1" stop-color="#F2EAC9"/>
</linearGradient>
<linearGradient id="paint11_linear_711_56" x1="539.613" y1="26.7353" x2="565.6" y2="-5.03858" gradientUnits="userSpaceOnUse">
<stop stop-color="#ECC4D7"/>
<stop offset="0.42" stop-color="#EFD4D1"/>
<stop offset="1" stop-color="#F2EAC9"/>
</linearGradient>
<linearGradient id="paint12_linear_711_56" x1="464.115" y1="409.476" x2="470.831" y2="437.453" gradientUnits="userSpaceOnUse">
<stop stop-color="#68E1FD"/>
<stop offset="0.01" stop-color="#67DDF9"/>
<stop offset="0.12" stop-color="#5CB3CE"/>
<stop offset="0.24" stop-color="#538EA9"/>
<stop offset="0.37" stop-color="#4C718B"/>
<stop offset="0.5" stop-color="#465A73"/>
<stop offset="0.63" stop-color="#424A63"/>
<stop offset="0.79" stop-color="#404059"/>
<stop offset="0.99" stop-color="#3F3D56"/>
</linearGradient>
<linearGradient id="paint13_linear_711_56" x1="629.653" y1="428.325" x2="640.846" y2="443.986" gradientUnits="userSpaceOnUse">
<stop stop-color="#68E1FD"/>
<stop offset="0.01" stop-color="#67DDF9"/>
<stop offset="0.12" stop-color="#5CB3CE"/>
<stop offset="0.24" stop-color="#538EA9"/>
<stop offset="0.37" stop-color="#4C718B"/>
<stop offset="0.5" stop-color="#465A73"/>
<stop offset="0.63" stop-color="#424A63"/>
<stop offset="0.79" stop-color="#404059"/>
<stop offset="0.99" stop-color="#3F3D56"/>
</linearGradient>
<linearGradient id="paint14_linear_711_56" x1="602.129" y1="97.2671" x2="726.711" y2="372.928" gradientUnits="userSpaceOnUse">
<stop stop-opacity="0"/>
<stop offset="0.91" stop-opacity="0.8"/>
<stop offset="1"/>
</linearGradient>
<clipPath id="clip0_711_56">
<rect width="717.408" height="520" fill="white"/>
</clipPath>
</defs>
</svg>
